<?xml version="1.0" encoding="UTF-8" standalone="no"?>
<!-- Created with Inkscape (http://www.inkscape.org/) -->

<svg
   version="1.1"
   id="svg1"
   width="262.24582"
   height="161.32732"
   viewBox="0 0 262.24582 161.32732"
   sodipodi:docname="Truck.png"
   inkscape:dataloss="true"
   inkscape:export-filename="Truck.svg"
   inkscape:export-xdpi="96"
   inkscape:export-ydpi="96"
   xmlns:inkscape="http://www.inkscape.org/namespaces/inkscape"
   xmlns:sodipodi="http://sodipodi.sourceforge.net/DTD/sodipodi-0.dtd"
   xmlns="http://www.w3.org/2000/svg"
   xmlns:svg="http://www.w3.org/2000/svg">
  <defs
     id="defs1" />
  <sodipodi:namedview
     id="namedview1"
     pagecolor="#505050"
     bordercolor="#eeeeee"
     borderopacity="1"
     inkscape:showpageshadow="0"
     inkscape:pageopacity="0"
     inkscape:pagecheckerboard="0"
     inkscape:deskcolor="#505050"
     inkscape:zoom="1.8021248"
     inkscape:cx="84.34488"
     inkscape:cy="180.06522"
     inkscape:window-width="1920"
     inkscape:window-height="1009"
     inkscape:window-x="-8"
     inkscape:window-y="-8"
     inkscape:window-maximized="1"
     inkscape:current-layer="g1" />
  <g
     inkscape:groupmode="layer"
     inkscape:label="Image"
     id="g1"
     transform="translate(-22.059237,-81.772942)">
    <path
       style="fill:#000000"
       d="m 82.890967,241.48651 c 13.275566,-6.64664 13.334066,-27.22341 0.0972,-34.18124 -17.46551,-9.18056 -29.18403,21.78155 -12.51908,33.07728 4.83474,3.27704 7.59208,3.52209 12.42191,1.10396 z m -10.37718,-10.33343 c -5.23134,-5.23133 -2.12306,-16.54545 4.54545,-16.54545 6.81685,0 10.204796,10.95975 5.07569,16.41944 -3.04722,3.24361 -6.45886,3.2883 -9.62114,0.12601 z m 113.045443,10.28757 c 16.69635,-9.23442 12.42409,-37.83302 -5.65176,-37.83302 -16.49236,0 -22.33105,27.01902 -7.93513,36.72043 3.68832,2.48556 10.14808,3.01453 13.58689,1.11259 z m -8.98327,-8.82666 c -5.83509,-2.2185 -6.92642,-12.86864 -1.80502,-17.61499 3.28155,-3.04124 6.30297,-3.03387 9.60182,0.0234 8.0319,7.44371 1.90021,21.27839 -7.7968,17.59159 z m -126.750283,7.74364 c 13.25914,-9.21264 7.60887,-33.82951 -7.73895,-33.71673 -15.34282,0.11274 -19.2773,27.09787 -5.02546,34.46778 4.13848,2.14009 9.01647,1.85307 12.76441,-0.75105 z m -10.3244,-7.51531 c -6.09306,-4.23123 -5.37146,-16.21036 1.07391,-17.82805 6.68452,-1.67771 11.69132,7.42429 8.00509,14.55267 -1.92263,3.71797 -6.21286,5.26573 -9.079,3.27538 z M 278.47034,232.5309 c 13.83792,-16.44543 3.66563,-22.68712 -37.00117,-22.7038 -39.59006,-0.0163 -39.59006,-0.0163 -38.93249,2.13214 1.95047,6.37249 2.47707,9.8285 2.49869,16.39839 0.0273,8.28834 66.78032,12.08188 73.43497,4.17327 z m -9.22588,-5.17327 c -0.27206,-1.43457 0.40233,-1.75 3.74145,-1.75 2.84757,0 4.07332,0.42631 4.07332,1.41667 0,2.98328 -7.25355,3.29268 -7.81477,0.33333 z m -47.60344,1.64301 c -2.03851,-0.78225 -2.03851,-3.00377 0,-3.78602 2.59107,-0.99429 10.24972,-0.68864 10.94529,0.43681 1.79695,2.90754 -5.93263,5.27275 -10.94529,3.34921 z m 12.4921,-10.80398 c -1.81857,-2.19125 -0.70051,-2.36804 17.32986,-2.74016 16.95748,-0.34998 21.66093,0.59162 15.43,3.08899 -3.99498,1.60119 -31.38352,1.30956 -32.75986,-0.34883 z m -16.88785,-1.83903 c -0.28727,-1.51109 0.49645,-1.75 5.74064,-1.75 5.82061,0 7.61157,1.12842 5.36174,3.37825 -1.54499,1.54499 -10.75593,0.19413 -11.10238,-1.62825 z m -59.18604,10.26073 c 0,-6.56784 0.5386,-10.40636 1.9995,-14.25 1.09972,-2.8934 1.99972,-5.37323 2,-5.51073 0.005,-2.65411 -55.99033,0.23916 -58.06144,3 -3.25989,4.34553 -4.155847,18.96178 -1.41843,23.13962 5.71061,8.71548 55.48037,2.99317 55.48037,-6.37889 z m -9.57756,-2.66921 c 0.31766,-0.8278 0.57756,-3.22015 0.57756,-5.31632 0,-2.46526 0.52974,-4.0145 1.5,-4.38683 1.24534,-0.47788 1.5,0.61344 1.5,6.4282 0,6.78108 -0.0661,6.96844 -2.07756,5.89192 -1.25721,-0.67283 -1.8495,-1.70618 -1.5,-2.61697 z m -40.42244,-3.44851 c 0,-8.26423 2.64082,-8.38162 3.21712,-0.14301 0.46311,6.6203 0.26392,7.37182 -1.74915,6.59934 -1.06083,-0.40708 -1.46797,-2.19773 -1.46797,-6.45633 z m -9.499997,-10.89301 c 1.551357,-3 1.551357,-3 -3.05038,-3 -4.60174,0 -4.60174,0 -2.27568,2.94467 2.94047,3.72249 3.42709,3.72754 5.32606,0.0553 z m -36.249996,0.53047 c 2.44739,-3.36577 2.31556,-3.53047 -2.82606,-3.53047 -4.57606,0 -4.57606,0 -2.25,2.94467 2.82805,3.58016 2.89326,3.58769 5.07606,0.5858 z m 212.999993,-5.20052 c 10.21076,-0.76316 8.48325,-26.6307 -2.21821,-33.21537 -9.78059,-6.01806 -17.49877,-8.89759 -25.71895,-9.59532 -4.29706,-0.36473 -10.28784,-1.04085 -13.31284,-1.50248 -3.025,-0.46163 -11.04659,-1.41753 -17.82576,-2.12422 -14.24509,-1.48497 -13.64107,-0.98051 -16.63468,-13.89256 -1.87756,-8.09832 -3.28476,-13.1579 -4.67828,-16.82083 -0.74224,-1.95097 -0.60234,-2.23892 0.87789,-1.80691 0.96846,0.28265 7.16083,1.26529 13.76083,2.18365 6.6,0.91837 18.20761,2.64887 25.79468,3.84558 15.5426,2.45151 14.90931,2.53304 13.48956,-1.7365 -3.26297,-9.81256 -10.05378,-13.07755 -38.78424,-18.6473 -5.225,-1.01293 -14.675,-2.86447 -21,-4.11452 -37.32137,-7.37612 -36,-9.110493 -36,47.25182 0,49.31686 1.2745,52.29495 18.76386,43.84501 7.31951,-3.5364 16.25448,-2.22123 22.90019,3.37077 2.8893,2.43119 59.72578,4.51827 80.58595,2.95918 z m -41.75,-6.32995 c 0,-1.8762 33.09186,-2.80814 34.91667,-0.98333 2.29351,2.29351 -2.2933,2.97378 -18.41667,2.73139 -13.88975,-0.20882 -16.5,-0.48536 -16.5,-1.74806 z m 5.64669,-7.64246 c -4.02074,-0.42025 -6.14669,-1.08868 -6.14669,-1.93261 0,-1.57448 2.49272,-2.30029 6.5,-1.89261 1.65,0.16786 8.4,0.34865 15,0.40175 11.92095,0.0959 15.38592,0.82347 14.0691,2.95413 -0.76611,1.23959 -19.23442,1.5342 -29.42241,0.46934 z m -30.14669,-23.86622 c -5.15635,-3.35774 -6.95351,-5.00164 -5.75115,-5.26071 2.28744,-0.49286 12.92635,6.00045 16.19393,9.88376 3.61572,4.29704 3.42147,7.38945 -0.20875,3.32324 -1.50372,-1.68432 -6.10903,-5.26015 -10.23403,-7.94629 z m -47.72743,5.19098 c 0.61938,-1.85816 10.22743,-1.55969 10.22743,0.3177 0,0.94131 -1.30362,1.70789 -3.5,2.05814 -3.91843,0.62487 -7.32648,-0.57871 -6.72743,-2.37584 z m 0.0302,-19.05394 c 0,-3.61927 -0.99603,-21.22027 0.25205,-24.42069 2.22242,-5.69888 21.13167,-4.00108 25.80114,-0.99665 3.9484,2.54048 5.99524,20.09537 6.06201,20.35484 2.1473,9.10836 3.48489,7.92105 -10.91797,9.69127 -16.20887,1.99219 -21.19723,-1.78177 -21.19723,-4.62875 z m 28.6494,-32.186 c -2.55944,-3.08393 -9.65946,-6.40829 -16.97171,-7.94647 -9.36803,-1.97063 -11.20813,-3.49589 -4.21748,-3.49589 8.33095,0 20.42156,5.73926 23.25877,11.04065 1.24908,2.33392 -0.22804,2.62064 -2.06958,0.40171 z m -52.35324,77.65221 c 9.03777,-4.10447 8.83415,-3.01542 9.40107,-50.2803 0.65462,-54.576466 0.11918,-53.942085 39.5,-46.79901 6.05,1.09737 12.2375,2.20662 13.75,2.46498 2.55203,0.43594 2.75,0.22547 2.75,-2.92371 0,-4.281643 -1.12469,-4.686336 -40.5,-14.573003 -18.76611,-4.711944 -27.76611,-5.694987 -37.7681,-4.125298 -3.97754,0.624227 -14.2069,2.252672 -22.7319,3.618767 -8.524997,1.366094 -24.949993,3.842499 -36.499993,5.503121 -29.96093,4.307686 -30.73562,4.455275 -34.23461,6.522182 -8.84905,5.227261 -9.26539,7.542531 -9.26539,51.524801 0,44.34019 0.23995,45.50025 10.29705,49.78206 5.26428,2.24126 100.212033,1.59693 105.301873,-0.71459 z m -66.126353,-7.22629 c -10.52492,-1.56538 -8.27305,-3.21409 5.06426,-3.7078 17.830956,-0.66005 27.678323,1.55347 16.213166,3.64445 -7.40083,1.34974 -12.525766,1.365 -21.277426,0.0633 z m 2.6615,-16.76845 c -19.85145,-26.77365 -23.97795,-49.30496 -11.54945,-63.06181 18.50646,-20.484446 51.183123,-2.40355 45.629843,25.24824 -2.23096,11.10878 -13.704007,32.60856 -22.736067,42.60597 -4.377246,4.84509 -4.117066,4.95501 -11.344326,-4.7924 z m 16.035436,-28.12662 c 12.530757,-6.61931 13.621357,-24.28665 1.9754,-32.00062 -8.006776,-5.30347 -17.467606,-3.92483 -23.982016,3.49467 -3.02028,3.43991 -3.51619,4.64529 -4.4873,10.907 -2.07011,13.34813 14.14749,24.12089 26.493916,17.59895 z M 68.297805,131.87763 c -2.026605,-2.93619 -1.315578,-6.3025 2.432547,-12.23566 1.646651,-2.6066 10.17941,-7.22159 8.157751,-3.33606 -0.780242,1.49959 -4.861417,4.01531 -7.440542,9.72511 -1.189055,2.63239 -0.986939,8.98015 -3.149756,5.84661 z m 192.562355,21.33439 c -0.22605,-5.17993 -0.72441,-7.16158 -2.00296,-7.96463 -2.73225,-1.71608 -3.01575,-0.27258 -1.27652,6.49962 2.35642,9.17539 3.641,9.74924 3.27948,1.46501 z m -7.80952,2.14561 c -0.93487,-5.74555 -3.93247,-15.59554 -4.93461,-16.2149 -1.78554,-1.10352 -29.69968,-5.50435 -38.34173,-6.04479 -16.99843,-1.06303 -5.13999,4.36945 15.28493,7.00219 19.29728,2.48738 18.75024,2.11244 22.98994,15.7575 1.83871,5.91772 5.97837,5.50388 5.00147,-0.5 z"
       id="path2"
       sodipodi:nodetypes="sssssssssssssssssssssssssscssssssssssssssssssssscsssssssssssssssssssssssssssssssssscssssssssssssssssssssssssssssssssssssssssssssssssssssssssssssssssssssssssssssss" />
  </g>
</svg>
