<?xml version="1.0" encoding="UTF-8" standalone="no"?>
<!-- Created with Inkscape (http://www.inkscape.org/) -->

<svg
   width="53.809601mm"
   height="68.386497mm"
   viewBox="0 0 53.809601 68.386497"
   version="1.1"
   id="svg1"
   xml:space="preserve"
   inkscape:version="1.3 (0e150ed6c4, 2023-07-21)"
   sodipodi:docname="mapPoint.svg"
   xmlns:inkscape="http://www.inkscape.org/namespaces/inkscape"
   xmlns:sodipodi="http://sodipodi.sourceforge.net/DTD/sodipodi-0.dtd"
   xmlns="http://www.w3.org/2000/svg"
   xmlns:svg="http://www.w3.org/2000/svg"><sodipodi:namedview
     id="namedview1"
     pagecolor="#505050"
     bordercolor="#eeeeee"
     borderopacity="1"
     inkscape:showpageshadow="0"
     inkscape:pageopacity="0"
     inkscape:pagecheckerboard="0"
     inkscape:deskcolor="#505050"
     inkscape:document-units="mm"
     inkscape:export-bgcolor="#ffffff00"
     inkscape:zoom="2.0485264"
     inkscape:cx="301.68027"
     inkscape:cy="383.44636"
     inkscape:window-width="1920"
     inkscape:window-height="1009"
     inkscape:window-x="-8"
     inkscape:window-y="-8"
     inkscape:window-maximized="1"
     inkscape:current-layer="layer4" /><defs
     id="defs1" /><g
     inkscape:groupmode="layer"
     id="layer4"
     inkscape:label="Capa 3"
     inkscape:export-filename="mapPoint.svg"
     inkscape:export-xdpi="96"
     inkscape:export-ydpi="96"
     transform="translate(-68.136865,-53.237822)"><rect
       style="display:none;fill:#000000;fill-opacity:1;stroke-width:0.264583"
       id="rect7"
       width="84.340096"
       height="32.160313"
       x="52.696415"
       y="99.968201" /><path
       style="display:inline;fill:#000000"
       d="M 92.704533,120.17128 C 91.362484,119.56176 91.50424,119.73887 81.460868,106.12277 69.051528,89.299051 68.533572,88.435022 68.6635,79.530591 c 0.493264,-33.805116 51.48444,-35.47273 53.21432,-1.058333 0.42938,8.54211 -0.82531,11.181273 -13.4175,28.222822 -11.148395,15.0876 -11.515833,15.40187 -15.755787,13.4762 z M 104.66441,103.80611 C 117.02982,87.083971 118.36062,84.020197 116.81505,75.832938 112.57873,53.392144 81.720624,51.179272 74.294187,72.783716 c -3.391498,9.866297 0.09758,17.329271 19.760693,42.267184 1.201624,1.52397 1.043833,1.69121 10.60953,-11.24479 z M 92.839557,88.03235 c -6.928123,-1.868022 -9.141329,-10.660019 -3.918541,-15.566465 5.284676,-4.964584 14.147044,-1.952174 15.266954,5.189396 1.03055,6.571743 -5.002251,12.088177 -11.348413,10.377069 z"
       id="path7"
       sodipodi:nodetypes="sssssssssssssss" /><path
       style="fill:#000000"
       d="m 94.060691,121.62431 c -1.473972,0.004 -3.221583,-1.41906 -12.599823,-15.50154 C 70.343107,89.428209 68.377838,89.081717 68.146868,79.659749 67.30259,45.219028 120.14794,44.057861 121.87782,78.472258 c 0.42938,8.54211 -0.82531,11.181273 -13.4175,28.222822 -11.148395,15.0876 -10.159675,14.91753 -14.399629,14.92923 z M 105.43936,104.71022 C 117.80477,87.988076 118.36062,84.020197 116.81505,75.832938 112.57873,53.392144 81.720624,51.179272 74.294187,72.783716 c -3.391498,9.866297 0.872527,18.233376 20.53564,43.171294 1.201624,1.52397 1.043833,1.69121 10.609533,-11.24479 z M 92.839557,88.03235 c -6.928123,-1.868022 -9.141329,-10.660019 -3.918541,-15.566465 5.284676,-4.964584 14.147044,-1.952174 15.266954,5.189396 1.03055,6.571743 -5.002251,12.088177 -11.348413,10.377069 z"
       id="path29"
       sodipodi:nodetypes="sssssssssssssss" /></g><g
     inkscape:groupmode="layer"
     id="layer3"
     inkscape:label="Capa 2"
     style="display:none"
     transform="translate(-68.136865,-53.237822)"><path
       d="m 103.72338,58.18818 v 3.14451 c 0,0.857287 -9.1e-4,1.501557 -0.0295,1.986442 -0.0142,0.242444 -0.0352,0.445243 -0.0667,0.614433 -0.0314,0.16919 -0.0734,0.304762 -0.12868,0.413928 -0.0553,0.109168 -0.12443,0.191871 -0.21032,0.254249 -0.0859,0.06238 -0.18843,0.104507 -0.31161,0.133325 -0.12318,0.02882 -0.26691,0.04422 -0.43408,0.05271 -0.16717,0.0085 -0.35782,0.01049 -0.57568,0.01188 -0.28257,0.0018 -0.56916,0.01642 -0.85938,0.04341 -0.29021,0.02699 -0.58429,0.06619 -0.88108,0.117306 -0.29679,0.05112 -0.596341,0.113915 -0.898653,0.188102 -0.302311,0.07419 -0.607382,0.159602 -0.914156,0.255799 -0.306774,0.0962 -0.615348,0.203247 -0.925525,0.320393 -0.310175,0.117148 -0.621789,0.244334 -0.93431,0.381372 -0.312519,0.13704 -0.626188,0.283894 -0.939994,0.439767 -0.313806,0.155873 -0.627513,0.320897 -0.941545,0.494543 -0.628062,0.347295 -1.255822,0.728977 -1.878438,1.141016 -0.622615,0.412039 -1.240286,0.854604 -1.848983,1.322917 -0.608695,0.468311 -1.208416,0.962349 -1.794722,1.478462 -0.586306,0.516115 -1.159179,1.054276 -1.714624,1.609721 -0.555446,0.555447 -1.093606,1.128318 -1.609721,1.714624 -0.516114,0.586307 -1.01015,1.186026 -1.478463,1.794723 -0.468311,0.608696 -0.910878,1.226367 -1.322916,1.848983 -0.412039,0.622614 -0.793721,1.249858 -1.141016,1.877921 -0.173647,0.314032 -0.338671,0.628257 -0.494543,0.942061 -0.155873,0.313806 -0.302727,0.627474 -0.439767,0.939995 -0.13704,0.312519 -0.264224,0.624133 -0.381372,0.93431 -0.117148,0.310175 -0.224197,0.618751 -0.320394,0.925525 -0.0962,0.306772 -0.181611,0.611844 -0.255798,0.914156 -0.07419,0.302311 -0.136984,0.601861 -0.188102,0.898653 -0.05112,0.29679 -0.09032,0.590871 -0.117306,0.881083 -0.02699,0.290212 -0.0416,0.576805 -0.04341,0.859379 -0.0014,0.217861 -0.0034,0.408509 -0.01189,0.575675 -0.0085,0.167168 -0.02389,0.310905 -0.05271,0.434083 -0.02882,0.123176 -0.07095,0.225718 -0.133325,0.311608 -0.06238,0.08589 -0.144563,0.155019 -0.253731,0.210323 -0.109168,0.05531 -0.245255,0.09673 -0.414445,0.128158 -0.16919,0.03142 -0.371473,0.05293 -0.613916,0.06718 -0.484887,0.02849 -1.129673,0.02894 -1.986959,0.02894 h -3.143994 v 3.175 3.175 h 3.162598 3.163114 l 0.166915,0.992188 c 0.06024,0.358693 0.12916,0.717936 0.207222,1.07642 0.07806,0.358482 0.165252,0.716269 0.26045,1.073836 0.0952,0.357567 0.198411,0.714791 0.310058,1.070736 0.111647,0.355943 0.231742,0.710915 0.359151,1.064535 0.25482,0.70723 0.540456,1.40903 0.854212,2.10271 0.313755,0.69369 0.655475,1.37914 1.022676,2.05363 0.367202,0.67447 0.759964,1.33782 1.175122,1.98747 0.41516,0.64965 0.852886,1.28565 1.310515,1.90479 0.457628,0.61916 0.93476,1.22152 1.42937,1.80455 0.494609,0.58301 1.006621,1.14651 1.532723,1.68775 0.5261,0.54124 1.066401,1.06062 1.618506,1.55442 0.552103,0.49382 1.116167,0.96228 1.688786,1.40302 0.572617,0.44074 1.153852,0.85357 1.741495,1.23558 0.587645,0.38202 1.181523,0.73345 1.778703,1.0511 0.298591,0.15883 0.598191,0.30895 0.898137,0.45062 0.299944,0.14167 0.600105,0.27461 0.90072,0.39843 0.300614,0.12381 0.601674,0.23839 0.90227,0.34364 0.300598,0.10526 0.600827,0.20134 0.90072,0.28733 0.299895,0.086 0.599115,0.16188 0.89762,0.22789 0.298505,0.066 0.596539,0.1221 0.892965,0.16743 0.29643,0.0453 0.59155,0.0799 0.88522,0.10387 0.29367,0.0239 0.58569,0.0369 0.87591,0.0388 0.21786,10e-4 0.40851,0.003 0.57568,0.0119 0.16716,0.008 0.3109,0.0239 0.43408,0.0527 0.12318,0.0288 0.22572,0.0709 0.31161,0.13333 0.0859,0.0624 0.15501,0.14508 0.21032,0.25425 0.0553,0.10916 0.0967,0.24473 0.12816,0.41392 0.0314,0.16919 0.0529,0.37199 0.0672,0.61444 0.0285,0.48488 0.0295,1.12915 0.0295,1.98644 v 3.14399 h 3.175 3.175 v -3.16259 -3.16312 l 0.99219,-0.16691 c 0.3587,-0.0602 0.71742,-0.12916 1.07591,-0.20723 0.35848,-0.0781 0.71626,-0.16525 1.07383,-0.26045 0.35757,-0.0952 0.71479,-0.19841 1.07074,-0.31005 0.35594,-0.11165 0.71092,-0.23175 1.06453,-0.35916 0.70723,-0.25482 1.40903,-0.54045 2.10272,-0.85421 0.69368,-0.31375 1.37913,-0.65547 2.05362,-1.02267 0.67449,-0.36721 1.33783,-0.75945 1.98747,-1.17461 0.64965,-0.41516 1.28564,-0.8534 1.9048,-1.31103 0.61915,-0.45763 1.22151,-0.93476 1.80454,-1.42937 0.58302,-0.49461 1.14651,-1.00662 1.68775,-1.53272 0.54124,-0.5261 1.06061,-1.0664 1.55443,-1.61851 0.49381,-0.5521 0.96227,-1.11565 1.40301,-1.68827 0.44074,-0.57262 0.85357,-1.15437 1.23559,-1.74201 0.382,-0.58765 0.73345,-1.18152 1.05109,-1.7787 0.15883,-0.29859 0.30895,-0.59768 0.45062,-0.89762 0.14168,-0.29995 0.27461,-0.60063 0.39843,-0.90124 0.12381,-0.30061 0.23839,-0.60167 0.34365,-0.90227 0.10525,-0.3006 0.20133,-0.60083 0.28732,-0.90072 0.086,-0.2999 0.16188,-0.599117 0.22789,-0.897621 0.066,-0.298506 0.1221,-0.596023 0.16743,-0.892452 0.0453,-0.29643 0.0799,-0.592067 0.10387,-0.885734 0.0239,-0.293669 0.0374,-0.585695 0.0393,-0.875916 0.001,-0.217861 0.003,-0.408508 0.0114,-0.575675 0.008,-0.167168 0.0239,-0.310905 0.0527,-0.434082 0.0288,-0.123178 0.0709,-0.225719 0.13333,-0.311609 0.0624,-0.08589 0.14508,-0.155017 0.25425,-0.210323 0.10917,-0.05531 0.24474,-0.09673 0.41393,-0.128158 0.16919,-0.03142 0.37198,-0.05293 0.61443,-0.06718 0.48489,-0.02849 1.12915,-0.02946 1.98644,-0.02946 h 3.14451 v -3.175 -3.175 h -3.16311 -3.16312 l -0.1664,-0.992187 c -0.0602,-0.358695 -0.12968,-0.71742 -0.20773,-1.075904 -0.0781,-0.358482 -0.16474,-0.716269 -0.25994,-1.073836 -0.0952,-0.357567 -0.19893,-0.714791 -0.31057,-1.070736 -0.11165,-0.355943 -0.23123,-0.710918 -0.35864,-1.064534 -0.25482,-0.707231 -0.54097,-1.409032 -0.85473,-2.102714 -0.31375,-0.693683 -0.65547,-1.379133 -1.02267,-2.053622 -0.3672,-0.674487 -0.75945,-1.33783 -1.17461,-1.987475 -0.41516,-0.649646 -0.85288,-1.285636 -1.31051,-1.904793 -0.45763,-0.619159 -0.93528,-1.221519 -1.42989,-1.804541 -0.49461,-0.583023 -1.00662,-1.146511 -1.53272,-1.687753 -0.5261,-0.54124 -1.0664,-1.060614 -1.61851,-1.554427 -0.5521,-0.493812 -1.11565,-0.962277 -1.68827,-1.403015 -0.57262,-0.440737 -1.15436,-0.853569 -1.74201,-1.235583 -0.58764,-0.382016 -1.18152,-0.733452 -1.7787,-1.051099 -0.29859,-0.158824 -0.59768,-0.308946 -0.89762,-0.450619 -0.29995,-0.141671 -0.60062,-0.274609 -0.90124,-0.398425 -0.30061,-0.123816 -0.60115,-0.238395 -0.90175,-0.343648 -0.3006,-0.105254 -0.60134,-0.201336 -0.90124,-0.287321 -0.29989,-0.08599 -0.59911,-0.161882 -0.89762,-0.227893 -0.2985,-0.06601 -0.59602,-0.122101 -0.89245,-0.167432 -0.29643,-0.04533 -0.59155,-0.07992 -0.88522,-0.103869 -0.29367,-0.02395 -0.58621,-0.0369 -0.87643,-0.03876 -0.21786,-0.0014 -0.40851,-0.0034 -0.57568,-0.01188 -0.16716,-0.0085 -0.3109,-0.02389 -0.43408,-0.05271 -0.12317,-0.02882 -0.22572,-0.07095 -0.31161,-0.133325 -0.0859,-0.06238 -0.15501,-0.145081 -0.21032,-0.254249 -0.0553,-0.109166 -0.0967,-0.244738 -0.12816,-0.413928 -0.0314,-0.16919 -0.0529,-0.371989 -0.0672,-0.614433 -0.0285,-0.484885 -0.0289,-1.129155 -0.0289,-1.986442 v -3.14451 h -3.175 z m 3.175,12.593029 c 0.38889,0 0.77242,0.0088 1.15136,0.02584 0.37893,0.01708 0.75296,0.04229 1.12189,0.07596 0.36893,0.03368 0.73307,0.0758 1.09192,0.125574 0.35886,0.04978 0.71272,0.107212 1.06144,0.172599 0.34871,0.06539 0.69191,0.138603 1.03043,0.219108 0.33851,0.0805 0.6722,0.168419 1.00045,0.26355 0.32825,0.09513 0.65153,0.197693 0.96945,0.306958 0.31792,0.109265 0.6304,0.225391 0.93793,0.348299 0.30753,0.122908 0.60985,0.252548 0.90692,0.388607 0.29707,0.136058 0.58885,0.278646 0.8754,0.427364 0.5731,0.297435 1.12507,0.619677 1.65571,0.964799 0.53065,0.345121 1.03988,0.712867 1.52756,1.101741 0.48768,0.388875 0.95415,0.798621 1.39836,1.227316 0.44421,0.428693 0.86636,0.876423 1.26659,1.341003 0.40023,0.464581 0.77856,0.946273 1.1343,1.442806 0.35574,0.496533 0.68867,1.007655 0.99942,1.532206 0.31075,0.524552 0.5993,1.062117 0.86455,1.610755 0.26524,0.548636 0.50733,1.108627 0.72657,1.677417 0.21923,0.568788 0.41536,1.146669 0.58808,1.731677 0.17271,0.585007 0.32182,1.177275 0.44751,1.774569 0.12569,0.597292 0.22777,1.199414 0.30593,1.805057 0.0782,0.605645 0.13266,1.214634 0.16278,1.824695 0.0301,0.610063 0.036,1.221383 0.0176,1.83193 -0.0184,0.610546 -0.0612,1.220181 -0.12868,1.827278 -0.0675,0.607098 -0.15941,1.211545 -0.27646,1.811259 -0.11706,0.599716 -0.25922,1.194955 -0.42633,1.783354 -0.16713,0.588398 -0.35953,1.169896 -0.57723,1.74305 -0.2177,0.57315 -0.46088,1.13792 -0.72967,1.69189 -0.26879,0.55395 -0.56329,1.09747 -0.88367,1.62832 -0.32038,0.53085 -0.66673,1.04908 -1.03921,1.55288 -0.37249,0.5038 -0.77071,0.99272 -1.19579,1.46554 -0.4251,0.47282 -0.87675,0.92946 -1.35496,1.36736 -0.23911,0.21895 -0.48494,0.43337 -0.73742,0.64285 -0.25248,0.20949 -0.51182,0.41388 -0.77773,0.6134 -0.26592,0.19953 -0.53862,0.39384 -0.81804,0.58291 -0.27942,0.18908 -0.56536,0.37274 -0.85835,0.55087 -0.29298,0.17814 -0.59307,0.3511 -0.89968,0.5178 -0.30661,0.1667 -0.6197,0.32737 -0.94,0.48214 -0.3203,0.15478 -0.64779,0.30361 -0.98185,0.44597 -0.33406,0.14236 -0.6748,0.27828 -1.02268,0.40773 -0.34787,0.12945 -0.70277,0.2524 -1.06453,0.36845 -0.36176,0.11605 -0.73017,0.22496 -1.10588,0.32711 -0.19711,0.0536 -0.45374,0.10574 -0.75447,0.15503 -0.30073,0.0493 -0.64561,0.0958 -1.0201,0.13901 -0.74895,0.0864 -1.61566,0.15886 -2.48046,0.21032 -0.86481,0.0515 -1.72785,0.082 -2.46962,0.0842 -0.37089,0.001 -0.71132,-0.005 -1.00666,-0.0186 -0.29534,-0.0138 -0.54543,-0.0356 -0.73535,-0.0661 -0.40623,-0.0654 -0.80566,-0.13888 -1.19786,-0.22066 -0.39221,-0.0818 -0.77726,-0.1716 -1.15549,-0.26924 -0.37823,-0.0976 -0.74984,-0.20281 -1.11414,-0.31574 -0.3643,-0.11293 -0.721369,-0.23354 -1.071772,-0.36122 -0.350401,-0.12767 -0.693881,-0.26275 -1.030428,-0.40462 -0.336545,-0.14187 -0.666356,-0.29046 -0.989087,-0.44597 -0.322729,-0.15551 -0.638275,-0.31768 -0.947229,-0.48628 -0.308952,-0.16859 -0.611188,-0.3439 -0.906404,-0.52503 -0.295216,-0.18113 -0.583545,-0.36809 -0.865064,-0.5612 -0.281517,-0.19311 -0.556378,-0.39233 -0.824239,-0.59687 -0.267859,-0.20453 -0.528655,-0.41452 -0.782898,-0.62993 -0.254241,-0.21541 -0.501927,-0.43625 -0.74259,-0.66198 -0.240663,-0.22573 -0.474642,-0.45645 -0.701766,-0.69195 -0.227124,-0.23549 -0.447317,-0.47565 -0.660942,-0.72037 -0.427247,-0.48941 -0.827472,-0.99684 -1.20096,-1.5198 -0.373486,-0.52296 -0.720204,-1.06127 -1.040246,-1.61334 -0.320043,-0.55207 -0.613652,-1.11771 -0.880567,-1.69447 -0.266915,-0.57675 -0.507299,-1.16463 -0.721403,-1.76165 -0.214103,-0.597011 -0.401664,-1.203066 -0.563273,-1.81591 -0.161609,-0.612842 -0.297264,-1.232486 -0.406693,-1.856734 -0.109431,-0.624248 -0.192545,-1.253412 -0.250114,-1.884639 -0.05757,-0.631229 -0.08958,-1.264811 -0.0956,-1.898593 -0.006,-0.633781 0.01371,-1.267717 0.05891,-1.899625 0.0452,-0.63191 0.116275,-1.261613 0.212391,-1.887224 0.09611,-0.625609 0.217609,-1.247017 0.364318,-1.861901 0.146711,-0.614886 0.318226,-1.223411 0.515214,-1.823145 0.19699,-0.599734 0.419159,-1.190794 0.66611,-1.770951 0.24695,-0.580158 0.518858,-1.149168 0.815454,-1.705323 0.296595,-0.556153 0.617841,-1.099566 0.963765,-1.62729 0.345925,-0.527726 0.716625,-1.039921 1.11156,-1.53479 0.394937,-0.494871 0.814173,-0.972299 1.257805,-1.429887 0.221815,-0.228795 0.449748,-0.452633 0.683679,-0.671277 0.23393,-0.218645 0.473848,-0.43233 0.719852,-0.640271 0.246006,-0.207941 0.497986,-0.409998 0.756027,-0.606681 0.258039,-0.196685 0.522164,-0.387702 0.792199,-0.572575 0.270037,-0.184875 0.545864,-0.363891 0.827857,-0.536402 0.281992,-0.172511 0.570121,-0.338566 0.86403,-0.498161 0.293909,-0.159593 0.593901,-0.312762 0.899686,-0.458886 0.305787,-0.146125 0.617204,-0.285444 0.934827,-0.417546 0.317624,-0.132101 0.64158,-0.256612 0.971,-0.374137 0.329422,-0.117525 0.664446,-0.227817 1.005621,-0.330213 0.34118,-0.102394 0.68838,-0.19699 1.04128,-0.283703 0.3529,-0.08671 0.71184,-0.165686 1.07642,-0.236161 0.36458,-0.07048 0.73483,-0.132348 1.11105,-0.186036 0.3762,-0.05369 0.75836,-0.09905 1.14618,-0.135392 0.38782,-0.03634 0.78144,-0.06372 1.1808,-0.08216 0.39938,-0.01845 0.80455,-0.02791 1.21543,-0.02791 z"
       id="path6"
       inkscape:export-filename="gps.svg"
       inkscape:export-xdpi="96"
       inkscape:export-ydpi="96" /><circle
       style="fill:#000000;fill-opacity:1;stroke-width:0.335138"
       id="path3"
       cx="106.61984"
       cy="91.76667"
       r="8.5889988" /></g><g
     inkscape:label="Capa 1"
     inkscape:groupmode="layer"
     id="layer1"
     style="display:none"
     transform="translate(-68.136865,-53.237822)"><path
       style="opacity:1;fill:#000000"
       d="m 108.59941,123.7586 c -1.16775,-0.71195 -0.99371,-0.20136 -5.73702,-16.83119 L 98.701189,92.338386 84.112167,88.177181 C 76.088206,85.888518 69.1388,83.858477 68.669044,83.665978 66.283647,82.688482 66.0922,78.397705 68.379367,77.173651 c 1.572729,-0.8417 61.547983,-20.612353 62.525823,-20.61144 2.03828,0.0019 3.57316,1.559131 3.57316,3.625181 0,0.928326 -19.81374,60.980458 -20.61243,62.472818 -0.83668,1.56336 -3.56915,2.13325 -5.26651,1.09839 z m 20.50434,-58.901841 c -0.0398,-0.03981 -6.0572,5.91331 -13.37198,13.229162 l -13.29959,13.301548 3.99372,14.006151 c 2.19655,7.70338 4.06295,14.18474 4.14756,14.40302 0.0846,0.21828 4.30483,-12.03761 9.37826,-27.235311 5.07343,-15.197701 9.19184,-27.664758 9.15203,-27.70457 z m -16.05566,10.346376 c 7.34826,-7.354969 13.13195,-13.287619 12.85265,-13.183667 -0.2793,0.103952 -12.78087,4.270799 -27.781251,9.25966 -15.000384,4.988862 -27.213895,9.084324 -27.141134,9.101027 0.07276,0.0167 6.442604,1.855251 14.155208,4.085662 7.712603,2.230411 14.14242,4.067599 14.288482,4.08264 0.146061,0.01504 6.277775,-5.990354 13.626045,-13.345322 z"
       id="path1"
       inkscape:export-filename="send.svg"
       inkscape:export-xdpi="96"
       inkscape:export-ydpi="96" /></g></svg>
