<?xml version="1.0" encoding="UTF-8" standalone="no"?>
<!-- Created with Inkscape (http://www.inkscape.org/) -->

<svg
  width="67.710991mm"
  height="67.719551mm"
  viewBox="0 0 67.710991 67.719551"
  version="1.1"
  id="svg1"
  xml:space="preserve"
  xmlns:inkscape="http://www.inkscape.org/namespaces/inkscape"
  xmlns:sodipodi="http://sodipodi.sourceforge.net/DTD/sodipodi-0.dtd"
  xmlns="http://www.w3.org/2000/svg"
  xmlns:svg="http://www.w3.org/2000/svg"><sodipodi:namedview
     id="namedview1"
     pagecolor="#505050"
     bordercolor="#eeeeee"
     borderopacity="1"
     inkscape:showpageshadow="0"
     inkscape:pageopacity="0"
     inkscape:pagecheckerboard="0"
     inkscape:deskcolor="#505050"
     inkscape:document-units="mm"
     inkscape:export-bgcolor="#ffffff00" /><defs
     id="defs1" /><g
     inkscape:label="Capa 1"
     inkscape:groupmode="layer"
     id="layer1"
     transform="translate(-66.767358,-56.562212)"><path
       style="opacity:1;fill:#000000"
       d="m 108.59941,123.7586 c -1.16775,-0.71195 -0.99371,-0.20136 -5.73702,-16.83119 L 98.701189,92.338386 84.112167,88.177181 C 76.088206,85.888518 69.1388,83.858477 68.669044,83.665978 66.283647,82.688482 66.0922,78.397705 68.379367,77.173651 c 1.572729,-0.8417 61.547983,-20.612353 62.525823,-20.61144 2.03828,0.0019 3.57316,1.559131 3.57316,3.625181 0,0.928326 -19.81374,60.980458 -20.61243,62.472818 -0.83668,1.56336 -3.56915,2.13325 -5.26651,1.09839 z m 20.50434,-58.901841 c -0.0398,-0.03981 -6.0572,5.91331 -13.37198,13.229162 l -13.29959,13.301548 3.99372,14.006151 c 2.19655,7.70338 4.06295,14.18474 4.14756,14.40302 0.0846,0.21828 4.30483,-12.03761 9.37826,-27.235311 5.07343,-15.197701 9.19184,-27.664758 9.15203,-27.70457 z m -16.05566,10.346376 c 7.34826,-7.354969 13.13195,-13.287619 12.85265,-13.183667 -0.2793,0.103952 -12.78087,4.270799 -27.781251,9.25966 -15.000384,4.988862 -27.213895,9.084324 -27.141134,9.101027 0.07276,0.0167 6.442604,1.855251 14.155208,4.085662 7.712603,2.230411 14.14242,4.067599 14.288482,4.08264 0.146061,0.01504 6.277775,-5.990354 13.626045,-13.345322 z"
       id="path1" /></g></svg>